<svg style="display:none;" xmlns="http://www.w3.org/2000/svg" xmlns:xlink="http://www.w3.org/1999/xlink">
<defs>
    <symbol id="aladwaa_logo" viewBox="0 0 195 95">
        <path fill="#EA4A24" d="M169.15 82.09c.456-3.288.71-6.643.71-10.058 0-39.935-32.373-72.308-72.31-72.308-39.934 0-72.308 32.374-72.308 72.308 0 3.415.254 6.77.712 10.058H169.15z"/>
        <path fill="#F6A61C" d="M153.005 82.09c.58-3.267.897-6.623.897-10.058 0-31.672-25.676-57.348-57.35-57.348-31.67 0-57.348 25.676-57.348 57.348 0 3.435.318 6.79.897 10.058h112.906z"/>
        <path fill="#30A449" d="M138.73 82.09c.784-3.226 1.21-6.59 1.21-10.058 0-23.41-18.978-42.387-42.39-42.387-23.41 0-42.387 18.978-42.387 42.387 0 3.468.425 6.832 1.21 10.058h82.356z"/>
        <path fill="#63C8DF" d="M123.068 82.09c1.23-3.114 1.91-6.506 1.91-10.058 0-15.147-12.278-27.427-27.427-27.427-15.145 0-27.426 12.28-27.426 27.427 0 3.552.682 6.943 1.91 10.058h51.035z"/>
        <path d="M-.484 74.41c1.067-2.514 3.384-3.287 5.996-3.054.4.035.81.008 1.213-.002.082-.002.16-.064.106-.04.388-1.596.64-3.14 1.14-4.602 1.104-3.24 5.55-6.63 9.63-6.703 4.655-.086 8.087 1.966 11.027 5.24 1.144 1.275 1.535 2.867.854 4.387-.63 1.41-1.765 2.52-3.59 2.338-.16-.016-3.742-1.11-4.79-.81 4.332.724 5.46 2.306 6.125 2.868 1.643 1.39 2.278 3.55 1.573 5.474-.686 1.87-2.46 3.053-4.616 3.05-6.027-.005-12.056.034-18.08-.085-.977-.02-2.65-.235-3.392-.894-4.578-4.308-3.266-6.995-3.192-7.17zm8.48-2.264c-1.4 0-2.605-.035-3.81.006C2.14 72.224.6 73.74.6 75.628c-.002 1.8 1.52 3.378 3.52 3.39 6.027.038 12.056.018 18.084-.04 1.934-.02 3.47-1.646 3.457-3.45-.012-1.813-1.565-3.328-3.507-3.387-1.034-.03-2.07.006-3.104-.02-1.62-.03-2.744-1.044-2.663-2.374.084-1.382 1.406-2.29 3.068-2.024 1.194.194 2.38.46 3.55.77 1.226.322 2.114-.17 2.837-1.066.743-.924.795-2.05.057-2.863-.937-1.032-2.038-2.03-3.26-2.672-4.498-2.366-10.038-.9-12.917 3.25-1.416 2.05-1.86 4.35-1.724 7.01zm186.296 6.196c0 1.46-.67 2.68-.97 3.05-2.014 2.484-5.12 2.413-7.578.38-2.425-1.997-3.074-4.272-2.972-7.27.168-4.925-.065-9.863-.103-14.795-.02-2.238.065-4.477.04-6.715-.024-2.02 1.092-3.31 2.726-4.138 1.627-.825 3.387-.79 4.81.435 1.444 1.24 4.044 3.312 4.044 6.045.002 8.998.002 14.007.002 23.006zm-3.53-13.932h.016c0-3.78.004-7.56-.006-11.34-.003-.44-.02-.907-.15-1.324-.562-1.81-2.11-2.773-3.932-2.49-1.887.296-3.102 1.667-3.107 3.633-.022 7.646-.02 15.296-.024 22.945-.005 2.287 1.55 3.978 3.646 3.968 2.058-.012 3.553-1.65 3.556-3.92.004-3.826 0-7.65 0-11.474zm-73.634 6.094c-.014-5.077 2.34-8.248 6.318-10.27 1.036-.524 2.317-.737 3.498-.78 2.91-.106 5.828-.034 9.09-.034-1.027-.95-1.784-1.72-2.61-2.4-2.535-2.086-2.85-4.606-.856-7.192 1.4-1.814 5.136-1.922 7.114-.184.644.562 1.24 1.178 1.856 1.766 2.258 2.146 2.23 4.987-.07 7.07-.195.177-.4.344-.568.84 1.172 0 2.353.1 3.513-.02 3.516-.353 5.2 2.122 6.95 4.452.335.444.364 1.192.368 1.802.03 4.095-.113 8.193.055 12.28.102 2.472-2.476 4.808-4.874 4.806-9.04-.01-18.08.072-27.12.09-13.84.022-27.68.028-41.52.016-1.15-.002-2.3-.225-3.56-.355-.48 1.16-.93 2.473-1.55 3.697-2.006 3.95-4.95 6.818-9.42 7.794-6.23 1.36-11.73.1-16.592-4.237-1.784-1.594-2.9-3.208-2.15-5.446.46-1.378 1.622-2.52 2.55-3.89-1.21-.763-1.05-2.314-1.037-3.85.03-3.238-.03-6.478.037-9.715.013-.663.24-1.464.658-1.953 2.656-3.12 5.806-5.177 10.167-5.138 3.286.03 6.543-.035 9.25 2.102 2.978 2.352 6.092 4.63 7.467 8.45.14.39.835.828 1.273.828 12.147.043 24.293.04 36.438.002.624-.002 1.43-.23 1.83-.654 1.107-1.17 2.135-1.442 3.5.126zm-45.397 1.2c-.79-2.017-1.244-3.84-2.163-5.38-4.012-6.726-13.41-8.333-19.485-3.397-1.27 1.034-2.774 2.04-2.817 3.915-.078 3.328-.07 6.658-.015 9.986.028 1.634 1.03 2.5 2.556 2.485 3.463-.027 10.388-.02 10.388-.02 1.94.062 3.144-.75 4.01-2.347.12-.216.314-.39.475-.584-1.228 4.408-6.108 7.414-10.79 6.38-1.125-.248-2.19-.77-3.275-1.194-1.493-.585-3.433.04-4.252 1.395-1.017 1.677-.867 3.495.444 4.512 6.468 5.018 19.426 5.732 23.642-5.776.603-1.648.987-3.377 1.586-5.46.66 2.97 2.64 3.057 4.862 3.047 11.966-.06 23.932-.045 35.898-.008 1.393.003 2.562-.144 3.175-1.73-.206 1.536.647 1.72 1.73 1.72 8.86-.014 17.725-.004 26.586-.02 2.563-.004 4.08-1.56 4.09-4.136.012-3.78.007-7.558.014-11.337.002-2.44-1.288-3.725-3.756-3.725-5.714.002-11.426.004-17.14.012-4.024.004-6.904 1.95-8.51 5.522-.78 1.735-.96 3.74-1.493 5.955-.737-.387-1.656-.866-2.667-1.395-.833 1.523-2.365 1.597-3.996 1.595-11.785-.024-23.572-.015-35.358-.015-1.347-.002-2.69-.002-3.738-.002zm68.136-19.018c.05-1.807-1.67-3.46-3.706-3.567-2.017-.107-4.043 1.64-4.062 3.503-.02 1.833 1.86 3.598 3.837 3.607 1.95.006 3.88-1.735 3.93-3.544zm30.968 18.59v-4.784c0-4.585-.013-9.17.01-13.754.007-1.668 1.286-3.435 2.932-4.013 1.86-.653 3.63-.497 5.152.906.493.457.938.97 1.463 1.387 1.28 1.02 1.898 2.26 1.893 3.952-.016 4.94.12 9.88.142 14.823.013 2.962-.068 5.927-.134 8.892-.04 1.744-2.253 3.822-4.1 3.83-6.16.03-12.32.033-18.48.047-1.314.003-2.46-.39-3.383-1.378-.426-.456-.902-.87-1.394-1.26-1.71-1.345-2.377-3.59-1.624-5.55.75-1.96 2.385-2.942 4.692-2.83.128.007.26-.034.557-.077.035-.5.104-1.017.104-1.53.008-5.083.004-10.163.004-15.244 0-3.346.05-3.466 2.438-5.865.078-.11.184-.72-.687-1.02-.136-.047-.75-.262-.87-.34-1.527-1.01-1.268-2.595-.154-3.928.336-.4 1.186-.52 1.146-1.01-1.995-2.433.416-3.86 2.26-4.59.875-.344 1.763-.658 2.65-.967 1.54-.536 2.522-.228 3.546 1.08.16.208.32.434.53.582 2.122 1.502 2.153 2.995.022 4.58.702 2.77-.42 4.914-3.813 5.61 1.247.666 1.553 1.287 2.078 1.883 1.322 1.495 2.298 2.71 2.282 4.75-.04 5.067.082 10.136.145 15.202.004.21.066.42.1.63l.494-.01zm-11.37 1.04c-.73 0-1.27.013-1.806-.005-2.068-.062-3.63 1.24-3.785 3.173-.142 1.737 1.545 3.493 3.54 3.507 6.03.038 12.06.03 18.09-.003 1.728-.01 3.394-1.68 3.4-3.376.024-7.602.032-15.204.003-22.81-.006-1.44-.682-2.613-2.04-3.235-2.476-1.133-5.037.543-5.05 3.33-.023 5.892-.006 11.786-.004 17.68v1.642h-5.064v-1.404c-.006-5.76-.005-11.52-.022-17.277-.005-1.438-.343-2.784-1.582-3.67-1.163-.834-2.45-.844-3.7-.19-1.436.746-1.96 2.064-1.97 3.585-.025 5.265-.01 10.53-.012 15.794.002 1.024.002 2.05.002 3.262zm1.803-28.787c-.223.04-.392.074-.562.087-1.013.082-1.5.677-1.313 1.62.18.903.835 1.217 1.74.877 1.01-.376 2.02-.737 3.03-1.102 2.468-.887 2.885-2.248 1.356-4.496l1.042-.614c.64-.377 1.57-.637 1.107-1.656-.445-.977-1.31-.958-2.194-.608-1.126.444-2.26.866-3.37 1.345-1.208.52-1.69 1.782-1.178 3.014.15.367.354.715.6 1.166.05.09-.14.34-.258.363zM43.205 67.513V79.39c0 3.626-3.865 6.076-7.063 4.298-1.525-.85-2.793-2.21-4.05-3.466-.366-.364-.4-1.167-.403-1.77-.025-8.412-.02-16.825-.018-25.24 0-2.34 1.268-4.18 3.245-4.733 2.31-.648 4.943.392 6.08 2.396 0 0 2.225 2.782 2.225 5.57-.068 3.688-.018 7.38-.018 11.067zm-10.734-2.37h-.08c0 4.268-.004 8.535.013 12.8 0 .343.08.725.25 1.015.703 1.21 2.923 2.06 4.25 1.675 1.99-.582 2.93-1.743 2.93-3.63.006-8.042.01-16.084.01-24.125 0-2.367-1.446-3.913-3.665-3.92-2.177-.008-3.693 1.583-3.7 3.92-.014 4.09-.006 8.176-.006 12.265z"/>
        <path fill="#fff" d="M7.996 72.146c-.137-2.66.307-4.96 1.725-7.005 2.88-4.15 8.42-5.616 12.92-3.25 1.222.642 2.322 1.637 3.26 2.672.736.814.685 1.94-.058 2.862-.723.9-1.61 1.39-2.837 1.067-1.17-.31-2.355-.574-3.55-.77-1.662-.267-2.982.645-3.067 2.026-.08 1.328 1.044 2.343 2.662 2.376 1.034.022 2.07-.013 3.104.02 1.942.06 3.496 1.573 3.51 3.387.014 1.805-1.524 3.43-3.458 3.447-6.028.06-12.056.08-18.085.043-2-.014-3.52-1.592-3.52-3.392 0-1.888 1.54-3.403 3.587-3.474 1.205-.042 2.41-.006 3.81-.006zm182.767-7.736c0 3.824.004 7.647-.002 11.472 0 2.27-1.496 3.91-3.554 3.92-2.1.013-3.65-1.678-3.648-3.967.006-7.647.002-15.297.023-22.945.008-1.968 1.224-3.338 3.11-3.633 1.82-.284 3.37.678 3.932 2.49.13.417.147.88.15 1.325.01 3.78.006 7.558.006 11.337h-.013zM71.73 71.703h3.735c11.785 0 23.572-.01 35.358.016 1.63.002 3.163-.07 3.996-1.595 1.01.527 1.93 1.01 2.667 1.396.532-2.216.713-4.22 1.494-5.956 1.605-3.572 4.485-5.517 8.51-5.522 5.714-.008 11.426-.008 17.14-.01 2.468 0 3.758 1.283 3.755 3.725-.007 3.78-.002 7.556-.015 11.335-.007 2.58-1.523 4.134-4.088 4.138-8.86.017-17.724.007-26.586.02-1.083 0-1.937-.185-1.73-1.72-.61 1.588-1.78 1.734-3.173 1.73-11.966-.04-23.932-.05-35.898.008-2.222.01-4.202-.078-4.862-3.05-.6 2.086-.983 3.813-1.587 5.46-4.215 11.51-17.172 10.793-23.642 5.775-1.31-1.017-1.46-2.835-.444-4.512.82-1.352 2.76-1.977 4.252-1.39 1.083.422 2.15.943 3.275 1.193 4.68 1.032 9.56-1.974 10.788-6.38-.16.192-.356.368-.474.584-.865 1.596-2.067 2.406-4.01 2.344-3.46-.112-6.923-.003-10.387.024-1.525.014-2.527-.854-2.556-2.485-.058-3.33-.063-6.66.015-9.987.044-1.877 1.548-2.883 2.82-3.915 6.074-4.937 15.472-3.33 19.484 3.394.922 1.544 1.373 3.368 2.167 5.383zm70.562-4.634c-3.524 0-6.894-.014-10.26.002-2.937.012-5.014 1.477-6.43 3.948-.682 1.188-.486 1.462.885 1.466 4.854.01 9.71.016 14.565.018.392 0 .78-.05 1.24-.078V67.07zM63.906 71.81c.012-2.85-2.863-5.347-5.82-5.152-2.94.193-5.474 2.686-5.154 5.153h10.974zM139.9 52.674c-.05 1.812-1.98 3.553-3.93 3.545-1.976-.01-3.854-1.776-3.837-3.607.02-1.863 2.046-3.612 4.062-3.506 2.036.106 3.754 1.76 3.705 3.566zm19.564 19.64V69.05c0-5.264-.015-10.53.012-15.793.01-1.52.534-2.84 1.97-3.586 1.25-.65 2.537-.64 3.7.193 1.24.886 1.577 2.232 1.582 3.67.018 5.757.017 11.517.02 17.277.002.436.002.873.002 1.403h5.065v-1.64c-.002-5.896-.02-11.788.004-17.683.01-2.785 2.57-4.462 5.05-3.33 1.355.623 2.03 1.794 2.037 3.236.03 7.605.02 15.208-.004 22.812-.006 1.696-1.672 3.366-3.4 3.376-6.03.033-12.06.04-18.088.002-1.996-.014-3.682-1.768-3.54-3.507.153-1.937 1.716-3.237 3.784-3.173.534.02 1.07.007 1.803.007zm1.432-30.224c-.516-1.232.002-2.585 1.21-3.105 1.11-.478 2.244-.9 3.37-1.346.885-.35 1.75-.37 2.194.606.464 1.02-.47 1.28-1.107 1.656-.347.205-.693.41-1.043.614 1.528 2.248 1.11 3.61-1.355 4.496-1.01.364-2.02.726-3.03 1.102-.905.34-1.562.025-1.74-.876-.187-.944.3-1.54 1.313-1.622.26-.02.88-.564.188-1.528zM32.47 65.145c0-4.09-.007-8.176.004-12.265.006-2.338 1.524-3.927 3.7-3.92 2.22.007 3.666 1.552 3.666 3.92-.002 8.04-.006 16.083-.01 24.124 0 1.888-.94 3.05-2.932 3.63-1.326.39-3.546-.465-4.25-1.676-.17-.29-.247-.674-.25-1.016-.016-4.264-.01-8.53-.01-12.798h.083z"/>
        <path d="M142.292 67.07v5.43h-1.24c-4.854 0-9.71-.006-14.564-.018-1.37-.002-1.565-.276-.886-1.463 1.417-2.47 3.494-3.937 6.43-3.95 3.367-.013 6.736 0 10.26 0zm-.81 3.646v1.334h-9.59c-1.19 0-2.385-.002-3.576-.006-.337 0-.385-.065-.217-.356.346-.607.854-.968 1.575-.972.827-.002 10.94 0 11.807 0zm-77.576 1.097H52.93c-.318-2.468 2.216-4.96 5.156-5.152 2.958-.193 5.832 2.304 5.82 5.154zm-5.732-.647h4.57c-1.276-1.4-3.1-1.375-4.57 0z"/>
    </symbol>

    <symbol id="apple" viewBox="66 -65 130.3 160">
        <path fill="#fff"  d="M172.1 19.7c.2 22.7 19.9 30.3 20.1 30.4-.2.5-3.1 10.8-10.4 21.3-6.3 9.1-12.7 18.2-23 18.4-10 .2-13.3-6-24.8-6s-15.1 5.8-24.6 6.1c-9.9.4-17.4-9.9-23.7-19C73 52.4 63.1 18.4 76.3-4.6c6.6-11.4 18.3-18.6 31-18.8 9.7-.2 18.8 6.5 24.8 6.5 5.9 0 17-8.1 28.7-6.9 4.9.2 18.6 2 27.4 14.9-.6.5-16.3 9.6-16.1 28.6m-18.9-55.8c5.2-6.3 8.8-15.2 7.8-23.9-7.6.3-16.7 5-22.1 11.4-4.9 5.6-9.1 14.6-8 23.2 8.5.6 17.1-4.3 22.3-10.7"/>
    </symbol>

    <symbol id="android" viewBox="459.6 0 34.9 40">
        <path fill="#fff" d="M482 3.9l2-2.9c.1-.2.1-.4-.1-.5-.2-.1-.4-.1-.5.1l-2 2.9c-1.3-.5-2.8-.8-4.4-.8s-3 .3-4.4.8l-2-2.9c-.1-.2-.3-.2-.5-.1s-.2.3-.1.5l1.9 2.8c-3.1 1.4-5.2 4.2-5.5 7.3h21c-.1-3.1-2.3-5.8-5.4-7.2zm-9.3 4.4c-.6 0-1.2-.5-1.2-1.2 0-.6.5-1.2 1.2-1.2.6 0 1.2.5 1.2 1.2s-.6 1.2-1.2 1.2zm8.8 0c-.6 0-1.2-.5-1.2-1.2 0-.6.5-1.2 1.2-1.2.6 0 1.2.5 1.2 1.2-.1.7-.6 1.2-1.2 1.2zM465.2 24.4c0 1.3-1 2.3-2.3 2.3-1.3 0-2.3-1-2.3-2.3V15c0-1.3 1-2.3 2.3-2.3 1.3 0 2.3 1 2.3 2.3v9.4zM466.6 12.7v17.1c0 1 .8 1.8 1.8 1.8h2.2v5.3c0 1.3 1 2.3 2.3 2.3 1.3 0 2.3-1 2.3-2.3v-5.3h3.6v5.3c0 1.3 1 2.3 2.3 2.3 1.3 0 2.3-1 2.3-2.3v-5.3h2.2c1 0 1.8-.8 1.8-1.8V12.7h-20.8zM488.9 24.4c0 1.3 1 2.3 2.3 2.3 1.3 0 2.3-1 2.3-2.3V15c0-1.3-1-2.3-2.3-2.3-1.3 0-2.3 1-2.3 2.3v9.4z"/>
    </symbol>

    <symbol id="phone_icon" viewBox="0 0 22 22">
        <path fill="#FFFFFF" d="M19.968,15.464l-4.917-2.636l-0.375-0.132
		c-0.194,0-0.389,0.103-0.583,0.308l-2.125,2.021c-0.278,0.264-0.57,0.308-0.875,0.132c-2.028-1.288-3.709-3.075-5.042-5.359
		C5.883,9.504,5.911,9.196,6.133,8.874l2.125-2.196c0.139-0.176,0.222-0.38,0.25-0.615c0-0.116-0.042-0.264-0.125-0.439L5.675,0.439
		C5.508,0.176,5.3,0.029,5.05,0C3.605,0.147,2.494,0.601,1.716,1.362C0.354,2.827,0.035,4.979,0.758,7.82
		c0.75,2.782,2.292,5.447,4.625,7.995c1.5,1.553,3.167,2.826,5,3.822c1.694,0.878,3.333,1.332,4.917,1.361
		c0.806,0,1.542-0.146,2.209-0.439c1.75-0.762,2.708-2.225,2.875-4.393C20.357,15.933,20.218,15.698,19.968,15.464L19.968,15.464z"
                />
    </symbol>
</defs>

</svg>